<?xml version="1.0" standalone="no"?><!DOCTYPE svg PUBLIC "-//W3C//DTD SVG 1.1//EN" "http://www.w3.org/Graphics/SVG/1.1/DTD/svg11.dtd"><svg class="icon" width="200px" height="200.00px" viewBox="0 0 1024 1024" version="1.1" xmlns="http://www.w3.org/2000/svg"><path d="M512.256 145.8176a306.176 306.176 0 1 1-306.176 306.1248 306.4832 306.4832 0 0 1 306.176-306.1248m0-33.8944a340.0704 340.0704 0 1 0 340.0192 340.0192 340.0704 340.0704 0 0 0-340.0192-340.0192z" fill="#666666" /><path d="M512.256 379.4432c68.8128 0 118.0672 6.9632 150.6304 21.248 33.4848 14.7456 47.7696 35.84 47.7696 70.2464 0 40.96-19.8656 83.5584-54.4768 116.2752a200.2944 200.2944 0 0 1-138.24 54.528 222.3104 222.3104 0 0 1-144.7424-55.296C335.5136 552.96 313.8048 511.0272 313.8048 471.04c0-34.4576 14.336-55.5008 47.8208-70.2464 32.512-14.2848 81.92-21.248 150.6304-21.248m0-33.8944C384 345.5488 279.9104 368.128 279.9104 471.04s109.824 204.8 238.1312 204.8 226.5088-101.8368 226.5088-204.8-103.9872-125.3888-232.2944-125.3888z" fill="#666666" /><path d="M406.1184 562.5344a8.2944 8.2944 0 0 1-4.352-1.1776C356.4544 534.1696 338.688 473.6 337.92 471.04a8.448 8.448 0 1 1 16.2816-4.6592c0 0.5632 16.7424 56.7296 56.32 80.4352a8.448 8.448 0 0 1-4.352 15.7184z" fill="#666666" /><path d="M425.8816 567.3472m-7.0656 0a7.0656 7.0656 0 1 0 14.1312 0 7.0656 7.0656 0 1 0-14.1312 0Z" fill="#666666" /><path d="M196.864 568.32h-39.2192a58.6752 58.6752 0 0 1-58.624-58.5728V421.888a58.7264 58.7264 0 0 1 58.624-58.6752h34.9184a16.9472 16.9472 0 0 1 0 33.8944h-34.9184A24.7808 24.7808 0 0 0 133.12 421.888v87.8592a24.7808 24.7808 0 0 0 24.7296 24.7808h39.2192a16.9472 16.9472 0 1 1 0 33.8432zM865.6896 568.32h-39.2192a16.9472 16.9472 0 1 1 0-33.8432h39.2192a24.7808 24.7808 0 0 0 24.7296-24.7808V421.888a24.7808 24.7808 0 0 0-24.7296-24.7808h-34.8672a16.9472 16.9472 0 0 1 0-33.8944h34.8672a58.7264 58.7264 0 0 1 58.624 58.6752v87.8592A58.6752 58.6752 0 0 1 865.6896 568.32z" fill="#666666" /><path d="M824.3712 184.6272h38.912v197.2736h-38.912z" fill="#666666" /><path d="M843.8784 176.8448m-36.352 0a36.352 36.352 0 1 0 72.704 0 36.352 36.352 0 1 0-72.704 0Z" fill="#666666" /><path d="M509.7472 906.752a556.1344 556.1344 0 0 1-136.96-17.2032c-121.9584-31.0784-197.7344-92.16-200.9088-94.8224a16.9984 16.9984 0 0 1-0.9728-25.6l102.4-97.28a16.9472 16.9472 0 1 1 23.3472 24.576l-87.6544 83.456a556.9024 556.9024 0 0 0 173.5168 77.1584c147.4048 37.1712 292.7616 10.9056 432.4352-77.9776l-78.2848-76.1344a16.9472 16.9472 0 1 1 23.6032-24.32l93.44 90.88a16.7424 16.7424 0 0 1 5.12 13.6192 17.1008 17.1008 0 0 1-7.3728 12.544c-125.4912 84.992-243.5584 111.104-341.7088 111.104z" fill="#666666" /></svg>